<?xml version="1.0" encoding="UTF-8" standalone="no"?><svg xmlns="http://www.w3.org/2000/svg" xmlns:xlink="http://www.w3.org/1999/xlink" contentStyleType="text/css" height="766px" preserveAspectRatio="none" style="width:1079px;height:766px;background:#FFFFFF;" version="1.1" viewBox="0 0 1079 766" width="1079px" zoomAndPan="magnify"><defs/><g><!--MD5=[a1f54a22ef4f3e6e99a3104e18d74c5e]
cluster MVC--><g id="cluster_MVC"><path d="M8.5,6 L42.5,6 A3.75,3.75 0 0 1 45,8.5 L52,28.4883 L621.5,28.4883 A2.5,2.5 0 0 1 624,30.9883 L624,615.5 A2.5,2.5 0 0 1 621.5,618 L8.5,618 A2.5,2.5 0 0 1 6,615.5 L6,8.5 A2.5,2.5 0 0 1 8.5,6 " fill="none" style="stroke:#000000;stroke-width:1.5;"/><line style="stroke:#000000;stroke-width:1.5;" x1="6" x2="52" y1="28.4883" y2="28.4883"/><text fill="#000000" font-family="sans-serif" font-size="14" font-weight="bold" lengthAdjust="spacing" textLength="33" x="10" y="21.5352">MVC</text></g><!--MD5=[9703e7a2df0f9f4e2524e12ff60e772e]
cluster State--><g id="cluster_State"><path d="M652.5,428.5 L689.5,428.5 A3.75,3.75 0 0 1 692,431 L699,450.9883 L1069.5,450.9883 A2.5,2.5 0 0 1 1072,453.4883 L1072,756.5 A2.5,2.5 0 0 1 1069.5,759 L652.5,759 A2.5,2.5 0 0 1 650,756.5 L650,431 A2.5,2.5 0 0 1 652.5,428.5 " fill="none" style="stroke:#000000;stroke-width:1.5;"/><line style="stroke:#000000;stroke-width:1.5;" x1="650" x2="699" y1="450.9883" y2="450.9883"/><text fill="#000000" font-family="sans-serif" font-size="14" font-weight="bold" lengthAdjust="spacing" textLength="36" x="654" y="444.0352">State</text></g><!--MD5=[7e20e022571e30ec1001cf6eabd7f3e2]
class Model--><g id="elem_Model"><rect codeLine="3" fill="#F1F1F1" height="48" id="Model" rx="2.5" ry="2.5" style="stroke:#181818;stroke-width:0.5;" width="74" x="143" y="248"/><ellipse cx="158" cy="264" fill="#ADD1B2" rx="11" ry="11" style="stroke:#181818;stroke-width:1.0;"/><path d="M160.4731,270.1431 Q159.8921,270.4419 159.2529,270.5913 Q158.6138,270.7407 157.9082,270.7407 Q155.4014,270.7407 154.0815,269.0889 Q152.7617,267.437 152.7617,264.3159 Q152.7617,261.1865 154.0815,259.5347 Q155.4014,257.8828 157.9082,257.8828 Q158.6138,257.8828 159.2612,258.0322 Q159.9087,258.1816 160.4731,258.4805 L160.4731,261.2031 Q159.8423,260.6221 159.2488,260.3523 Q158.6553,260.0825 158.0244,260.0825 Q156.6797,260.0825 155.9949,261.1492 Q155.3101,262.2158 155.3101,264.3159 Q155.3101,266.4077 155.9949,267.4744 Q156.6797,268.541 158.0244,268.541 Q158.6553,268.541 159.2488,268.2712 Q159.8423,268.0015 160.4731,267.4204 Z " fill="#000000"/><text fill="#000000" font-family="sans-serif" font-size="14" lengthAdjust="spacing" textLength="42" x="172" y="269.291">Model</text><line style="stroke:#181818;stroke-width:0.5;" x1="144" x2="216" y1="280" y2="280"/><line style="stroke:#181818;stroke-width:0.5;" x1="144" x2="216" y1="288" y2="288"/></g><!--MD5=[c045e12321b83266d36d22b9096c24ea]
class View--><g id="elem_View"><rect codeLine="5" fill="#F1F1F1" height="245.8594" id="View" rx="2.5" ry="2.5" style="stroke:#181818;stroke-width:0.5;" width="353" x="252.5" y="149"/><ellipse cx="408.75" cy="165" fill="#ADD1B2" rx="11" ry="11" style="stroke:#181818;stroke-width:1.0;"/><path d="M411.2231,171.1431 Q410.6421,171.4419 410.0029,171.5913 Q409.3638,171.7407 408.6582,171.7407 Q406.1514,171.7407 404.8315,170.0889 Q403.5117,168.437 403.5117,165.3159 Q403.5117,162.1865 404.8315,160.5347 Q406.1514,158.8828 408.6582,158.8828 Q409.3638,158.8828 410.0112,159.0322 Q410.6587,159.1816 411.2231,159.4805 L411.2231,162.2031 Q410.5923,161.6221 409.9988,161.3523 Q409.4053,161.0825 408.7744,161.0825 Q407.4297,161.0825 406.7449,162.1492 Q406.0601,163.2158 406.0601,165.3159 Q406.0601,167.4077 406.7449,168.4744 Q407.4297,169.541 408.7744,169.541 Q409.4053,169.541 409.9988,169.2712 Q410.5923,169.0015 411.2231,168.4204 Z " fill="#000000"/><text fill="#000000" font-family="sans-serif" font-size="14" lengthAdjust="spacing" textLength="32" x="429.25" y="170.291">View</text><line style="stroke:#181818;stroke-width:0.5;" x1="253.5" x2="604.5" y1="181" y2="181"/><rect fill="none" height="6" style="stroke:#C82930;stroke-width:1.0;" width="6" x="260.5" y="191.7441"/><text fill="#000000" font-family="sans-serif" font-size="14" lengthAdjust="spacing" textLength="123" x="272.5" y="198.5352">tk_root: tkinter.Tk</text><rect fill="none" height="6" style="stroke:#C82930;stroke-width:1.0;" width="6" x="260.5" y="208.2324"/><text fill="#000000" font-family="sans-serif" font-size="14" lengthAdjust="spacing" textLength="70" x="272.5" y="215.0234">size: tuple</text><rect fill="none" height="6" style="stroke:#C82930;stroke-width:1.0;" width="6" x="260.5" y="224.7207"/><text fill="#000000" font-family="sans-serif" font-size="14" lengthAdjust="spacing" textLength="145" x="272.5" y="231.5117">controller: Controller</text><rect fill="none" height="6" style="stroke:#C82930;stroke-width:1.0;" width="6" x="260.5" y="241.209"/><text fill="#000000" font-family="sans-serif" font-size="14" lengthAdjust="spacing" textLength="245" x="272.5" y="248">change_text_view: ChangeTextView</text><rect fill="none" height="6" style="stroke:#C82930;stroke-width:1.0;" width="6" x="260.5" y="257.6973"/><text fill="#000000" font-family="sans-serif" font-size="14" lengthAdjust="spacing" textLength="327" x="272.5" y="264.4883">change_inner_data_view: ChangeInnerDataView</text><line style="stroke:#181818;stroke-width:0.5;" x1="253.5" x2="604.5" y1="271.4414" y2="271.4414"/><ellipse cx="263.5" cy="285.1855" fill="#84BE84" rx="3" ry="3" style="stroke:#038048;stroke-width:1.0;"/><text fill="#000000" font-family="sans-serif" font-size="14" lengthAdjust="spacing" textLength="249" x="272.5" y="288.9766">set_controller(controller: Controller)</text><ellipse cx="263.5" cy="301.6738" fill="#84BE84" rx="3" ry="3" style="stroke:#038048;stroke-width:1.0;"/><text fill="#000000" font-family="sans-serif" font-size="14" lengthAdjust="spacing" textLength="239" x="272.5" y="305.4648">change_state_label(state_label: str)</text><ellipse cx="263.5" cy="318.1621" fill="#84BE84" rx="3" ry="3" style="stroke:#038048;stroke-width:1.0;"/><text fill="#000000" font-family="sans-serif" font-size="14" lengthAdjust="spacing" textLength="147" x="272.5" y="321.9531">change_text(text: str)</text><ellipse cx="263.5" cy="334.6504" fill="#84BE84" rx="3" ry="3" style="stroke:#038048;stroke-width:1.0;"/><text fill="#000000" font-family="sans-serif" font-size="14" lengthAdjust="spacing" textLength="175" x="272.5" y="338.4414">change_var_text(text: str)</text><ellipse cx="263.5" cy="351.1387" fill="#84BE84" rx="3" ry="3" style="stroke:#038048;stroke-width:1.0;"/><text fill="#000000" font-family="sans-serif" font-size="14" lengthAdjust="spacing" textLength="221" x="272.5" y="354.9297">alert_info(title: str, message: str)</text><ellipse cx="263.5" cy="367.627" fill="#84BE84" rx="3" ry="3" style="stroke:#038048;stroke-width:1.0;"/><text fill="#000000" font-family="sans-serif" font-size="14" lengthAdjust="spacing" textLength="229" x="272.5" y="371.418">alert_error(title: str, message: str)</text><ellipse cx="263.5" cy="384.1152" fill="#84BE84" rx="3" ry="3" style="stroke:#038048;stroke-width:1.0;"/><text fill="#000000" font-family="sans-serif" font-size="14" lengthAdjust="spacing" textLength="250" x="272.5" y="387.9063">alert_warning(title: str, message: str)</text></g><!--MD5=[2270d2e531914c11edd48960db5ad674]
class ChangeTextView--><g id="elem_ChangeTextView"><rect codeLine="20" fill="#F1F1F1" height="146.9297" id="ChangeTextView" rx="2.5" ry="2.5" style="stroke:#181818;stroke-width:0.5;" width="275" x="22.5" y="455"/><ellipse cx="97.75" cy="471" fill="#ADD1B2" rx="11" ry="11" style="stroke:#181818;stroke-width:1.0;"/><path d="M100.2231,477.1431 Q99.6421,477.4419 99.0029,477.5913 Q98.3638,477.7407 97.6582,477.7407 Q95.1514,477.7407 93.8315,476.0889 Q92.5117,474.437 92.5117,471.3159 Q92.5117,468.1865 93.8315,466.5347 Q95.1514,464.8828 97.6582,464.8828 Q98.3638,464.8828 99.0112,465.0322 Q99.6587,465.1816 100.2231,465.4805 L100.2231,468.2031 Q99.5923,467.6221 98.9988,467.3523 Q98.4053,467.0825 97.7744,467.0825 Q96.4297,467.0825 95.7449,468.1492 Q95.0601,469.2158 95.0601,471.3159 Q95.0601,473.4077 95.7449,474.4744 Q96.4297,475.541 97.7744,475.541 Q98.4053,475.541 98.9988,475.2712 Q99.5923,475.0015 100.2231,474.4204 Z " fill="#000000"/><text fill="#000000" font-family="sans-serif" font-size="14" lengthAdjust="spacing" textLength="116" x="118.25" y="476.291">ChangeTextView</text><line style="stroke:#181818;stroke-width:0.5;" x1="23.5" x2="296.5" y1="487" y2="487"/><rect fill="none" height="6" style="stroke:#C82930;stroke-width:1.0;" width="6" x="30.5" y="497.7441"/><text fill="#000000" font-family="sans-serif" font-size="14" lengthAdjust="spacing" textLength="169" x="42.5" y="504.5352">master: tkinter.ttk.Frame</text><rect fill="none" height="6" style="stroke:#C82930;stroke-width:1.0;" width="6" x="30.5" y="514.2324"/><text fill="#000000" font-family="sans-serif" font-size="14" lengthAdjust="spacing" textLength="70" x="42.5" y="521.0234">size: tuple</text><rect fill="none" height="6" style="stroke:#C82930;stroke-width:1.0;" width="6" x="30.5" y="530.7207"/><text fill="#000000" font-family="sans-serif" font-size="14" lengthAdjust="spacing" textLength="145" x="42.5" y="537.5117">controller: Controller</text><line style="stroke:#181818;stroke-width:0.5;" x1="23.5" x2="296.5" y1="544.4648" y2="544.4648"/><ellipse cx="33.5" cy="558.209" fill="#84BE84" rx="3" ry="3" style="stroke:#038048;stroke-width:1.0;"/><text fill="#000000" font-family="sans-serif" font-size="14" lengthAdjust="spacing" textLength="249" x="42.5" y="562">set_controller(controller: Controller)</text><ellipse cx="33.5" cy="574.6973" fill="#84BE84" rx="3" ry="3" style="stroke:#038048;stroke-width:1.0;"/><text fill="#000000" font-family="sans-serif" font-size="14" lengthAdjust="spacing" textLength="239" x="42.5" y="578.4883">change_state_label(state_label: str)</text><ellipse cx="33.5" cy="591.1855" fill="#84BE84" rx="3" ry="3" style="stroke:#038048;stroke-width:1.0;"/><text fill="#000000" font-family="sans-serif" font-size="14" lengthAdjust="spacing" textLength="147" x="42.5" y="594.9766">change_text(text: str)</text></g><!--MD5=[c33c300da4a82bb642292a7739086f29]
class ChangeInnerDataView--><g id="elem_ChangeInnerDataView"><rect codeLine="29" fill="#F1F1F1" height="130.4414" id="ChangeInnerDataView" rx="2.5" ry="2.5" style="stroke:#181818;stroke-width:0.5;" width="275" x="332.5" y="463.5"/><ellipse cx="389.75" cy="479.5" fill="#ADD1B2" rx="11" ry="11" style="stroke:#181818;stroke-width:1.0;"/><path d="M392.2231,485.6431 Q391.6421,485.9419 391.0029,486.0913 Q390.3638,486.2407 389.6582,486.2407 Q387.1514,486.2407 385.8315,484.5889 Q384.5117,482.937 384.5117,479.8159 Q384.5117,476.6865 385.8315,475.0347 Q387.1514,473.3828 389.6582,473.3828 Q390.3638,473.3828 391.0112,473.5322 Q391.6587,473.6816 392.2231,473.9805 L392.2231,476.7031 Q391.5923,476.1221 390.9988,475.8523 Q390.4053,475.5825 389.7744,475.5825 Q388.4297,475.5825 387.7449,476.6492 Q387.0601,477.7158 387.0601,479.8159 Q387.0601,481.9077 387.7449,482.9744 Q388.4297,484.041 389.7744,484.041 Q390.4053,484.041 390.9988,483.7712 Q391.5923,483.5015 392.2231,482.9204 Z " fill="#000000"/><text fill="#000000" font-family="sans-serif" font-size="14" lengthAdjust="spacing" textLength="152" x="410.25" y="484.791">ChangeInnerDataView</text><line style="stroke:#181818;stroke-width:0.5;" x1="333.5" x2="606.5" y1="495.5" y2="495.5"/><rect fill="none" height="6" style="stroke:#C82930;stroke-width:1.0;" width="6" x="340.5" y="506.2441"/><text fill="#000000" font-family="sans-serif" font-size="14" lengthAdjust="spacing" textLength="169" x="352.5" y="513.0352">master: tkinter.ttk.Frame</text><rect fill="none" height="6" style="stroke:#C82930;stroke-width:1.0;" width="6" x="340.5" y="522.7324"/><text fill="#000000" font-family="sans-serif" font-size="14" lengthAdjust="spacing" textLength="70" x="352.5" y="529.5234">size: tuple</text><rect fill="none" height="6" style="stroke:#C82930;stroke-width:1.0;" width="6" x="340.5" y="539.2207"/><text fill="#000000" font-family="sans-serif" font-size="14" lengthAdjust="spacing" textLength="145" x="352.5" y="546.0117">controller: Controller</text><line style="stroke:#181818;stroke-width:0.5;" x1="333.5" x2="606.5" y1="552.9648" y2="552.9648"/><ellipse cx="343.5" cy="566.709" fill="#84BE84" rx="3" ry="3" style="stroke:#038048;stroke-width:1.0;"/><text fill="#000000" font-family="sans-serif" font-size="14" lengthAdjust="spacing" textLength="249" x="352.5" y="570.5">set_controller(controller: Controller)</text><ellipse cx="343.5" cy="583.1973" fill="#84BE84" rx="3" ry="3" style="stroke:#038048;stroke-width:1.0;"/><text fill="#000000" font-family="sans-serif" font-size="14" lengthAdjust="spacing" textLength="175" x="352.5" y="586.9883">change_var_text(text: str)</text></g><!--MD5=[1d7ba1c7002d54515419844fbd155368]
class Controller--><g id="elem_Controller"><rect codeLine="38" fill="#F1F1F1" height="48" id="Controller" rx="2.5" ry="2.5" style="stroke:#181818;stroke-width:0.5;" width="102" x="378" y="41"/><ellipse cx="393" cy="57" fill="#ADD1B2" rx="11" ry="11" style="stroke:#181818;stroke-width:1.0;"/><path d="M395.4731,63.1431 Q394.8921,63.4419 394.2529,63.5913 Q393.6138,63.7407 392.9082,63.7407 Q390.4014,63.7407 389.0815,62.0889 Q387.7617,60.437 387.7617,57.3159 Q387.7617,54.1865 389.0815,52.5347 Q390.4014,50.8828 392.9082,50.8828 Q393.6138,50.8828 394.2612,51.0322 Q394.9087,51.1816 395.4731,51.4805 L395.4731,54.2031 Q394.8423,53.6221 394.2488,53.3523 Q393.6553,53.0825 393.0244,53.0825 Q391.6797,53.0825 390.9949,54.1492 Q390.3101,55.2158 390.3101,57.3159 Q390.3101,59.4077 390.9949,60.4744 Q391.6797,61.541 393.0244,61.541 Q393.6553,61.541 394.2488,61.2712 Q394.8423,61.0015 395.4731,60.4204 Z " fill="#000000"/><text fill="#000000" font-family="sans-serif" font-size="14" lengthAdjust="spacing" textLength="70" x="407" y="62.291">Controller</text><line style="stroke:#181818;stroke-width:0.5;" x1="379" x2="479" y1="73" y2="73"/><line style="stroke:#181818;stroke-width:0.5;" x1="379" x2="479" y1="81" y2="81"/></g><!--MD5=[ce695e8a477a757601fd4b52ccc6fbc9]
class StateBase--><g id="elem_StateBase"><rect codeLine="48" fill="#F1F1F1" height="130.4414" id="StateBase" rx="2.5" ry="2.5" style="stroke:#181818;stroke-width:0.5;" width="177" x="668.5" y="463.5"/><ellipse cx="720.25" cy="479.5" fill="#ADD1B2" rx="11" ry="11" style="stroke:#181818;stroke-width:1.0;"/><path d="M722.7231,485.6431 Q722.1421,485.9419 721.5029,486.0913 Q720.8638,486.2407 720.1582,486.2407 Q717.6514,486.2407 716.3315,484.5889 Q715.0117,482.937 715.0117,479.8159 Q715.0117,476.6865 716.3315,475.0347 Q717.6514,473.3828 720.1582,473.3828 Q720.8638,473.3828 721.5112,473.5322 Q722.1587,473.6816 722.7231,473.9805 L722.7231,476.7031 Q722.0923,476.1221 721.4988,475.8523 Q720.9053,475.5825 720.2744,475.5825 Q718.9297,475.5825 718.2449,476.6492 Q717.5601,477.7158 717.5601,479.8159 Q717.5601,481.9077 718.2449,482.9744 Q718.9297,484.041 720.2744,484.041 Q720.9053,484.041 721.4988,483.7712 Q722.0923,483.5015 722.7231,482.9204 Z " fill="#000000"/><text fill="#000000" font-family="sans-serif" font-size="14" lengthAdjust="spacing" textLength="65" x="740.75" y="484.791">StateBase</text><line style="stroke:#181818;stroke-width:0.5;" x1="669.5" x2="844.5" y1="495.5" y2="495.5"/><rect fill="none" height="6" style="stroke:#C82930;stroke-width:1.0;" width="6" x="676.5" y="506.2441"/><text fill="#000000" font-family="sans-serif" font-size="14" lengthAdjust="spacing" textLength="145" x="688.5" y="513.0352">controller: Controller</text><rect fill="none" height="6" style="stroke:#C82930;stroke-width:1.0;" width="6" x="676.5" y="522.7324"/><text fill="#000000" font-family="sans-serif" font-size="14" lengthAdjust="spacing" textLength="70" x="688.5" y="529.5234">view: View</text><rect fill="none" height="6" style="stroke:#C82930;stroke-width:1.0;" width="6" x="676.5" y="539.2207"/><text fill="#000000" font-family="sans-serif" font-size="14" lengthAdjust="spacing" textLength="115" x="688.5" y="546.0117">context: Context</text><line style="stroke:#181818;stroke-width:0.5;" x1="669.5" x2="844.5" y1="552.9648" y2="552.9648"/><ellipse cx="679.5" cy="566.709" fill="#84BE84" rx="3" ry="3" style="stroke:#038048;stroke-width:1.0;"/><text fill="#000000" font-family="sans-serif" font-size="14" lengthAdjust="spacing" textLength="136" x="688.5" y="570.5">push_button(): bool</text><ellipse cx="679.5" cy="583.1973" fill="#84BE84" rx="3" ry="3" style="stroke:#038048;stroke-width:1.0;"/><text fill="#000000" font-family="sans-serif" font-size="14" lengthAdjust="spacing" textLength="151" x="688.5" y="586.9883">switch_context(): bool</text></g><!--MD5=[b3e48f32ede1d49e6602796026135540]
class InitState--><g id="elem_InitState"><rect codeLine="55" fill="#F1F1F1" height="80.9766" id="InitState" rx="2.5" ry="2.5" style="stroke:#181818;stroke-width:0.5;" width="177" x="666.5" y="662"/><ellipse cx="722.75" cy="678" fill="#ADD1B2" rx="11" ry="11" style="stroke:#181818;stroke-width:1.0;"/><path d="M725.2231,684.1431 Q724.6421,684.4419 724.0029,684.5913 Q723.3638,684.7407 722.6582,684.7407 Q720.1514,684.7407 718.8315,683.0889 Q717.5117,681.437 717.5117,678.3159 Q717.5117,675.1865 718.8315,673.5347 Q720.1514,671.8828 722.6582,671.8828 Q723.3638,671.8828 724.0112,672.0322 Q724.6587,672.1816 725.2231,672.4805 L725.2231,675.2031 Q724.5923,674.6221 723.9988,674.3523 Q723.4053,674.0825 722.7744,674.0825 Q721.4297,674.0825 720.7449,675.1492 Q720.0601,676.2158 720.0601,678.3159 Q720.0601,680.4077 720.7449,681.4744 Q721.4297,682.541 722.7744,682.541 Q723.4053,682.541 723.9988,682.2712 Q724.5923,682.0015 725.2231,681.4204 Z " fill="#000000"/><text fill="#000000" font-family="sans-serif" font-size="14" lengthAdjust="spacing" textLength="56" x="743.25" y="683.291">InitState</text><line style="stroke:#181818;stroke-width:0.5;" x1="667.5" x2="842.5" y1="694" y2="694"/><line style="stroke:#181818;stroke-width:0.5;" x1="667.5" x2="842.5" y1="702" y2="702"/><ellipse cx="677.5" cy="715.7441" fill="#84BE84" rx="3" ry="3" style="stroke:#038048;stroke-width:1.0;"/><text fill="#000000" font-family="sans-serif" font-size="14" lengthAdjust="spacing" textLength="136" x="686.5" y="719.5352">push_button(): bool</text><ellipse cx="677.5" cy="732.2324" fill="#84BE84" rx="3" ry="3" style="stroke:#038048;stroke-width:1.0;"/><text fill="#000000" font-family="sans-serif" font-size="14" lengthAdjust="spacing" textLength="151" x="686.5" y="736.0234">switch_context(): bool</text></g><!--MD5=[861ad54e45d35870caa331ba0012bf21]
class ResultState--><g id="elem_ResultState"><rect codeLine="59" fill="#F1F1F1" height="80.9766" id="ResultState" rx="2.5" ry="2.5" style="stroke:#181818;stroke-width:0.5;" width="177" x="878.5" y="662"/><ellipse cx="924.75" cy="678" fill="#ADD1B2" rx="11" ry="11" style="stroke:#181818;stroke-width:1.0;"/><path d="M927.2231,684.1431 Q926.6421,684.4419 926.0029,684.5913 Q925.3638,684.7407 924.6582,684.7407 Q922.1514,684.7407 920.8315,683.0889 Q919.5117,681.437 919.5117,678.3159 Q919.5117,675.1865 920.8315,673.5347 Q922.1514,671.8828 924.6582,671.8828 Q925.3638,671.8828 926.0112,672.0322 Q926.6587,672.1816 927.2231,672.4805 L927.2231,675.2031 Q926.5923,674.6221 925.9988,674.3523 Q925.4053,674.0825 924.7744,674.0825 Q923.4297,674.0825 922.7449,675.1492 Q922.0601,676.2158 922.0601,678.3159 Q922.0601,680.4077 922.7449,681.4744 Q923.4297,682.541 924.7744,682.541 Q925.4053,682.541 925.9988,682.2712 Q926.5923,682.0015 927.2231,681.4204 Z " fill="#000000"/><text fill="#000000" font-family="sans-serif" font-size="14" lengthAdjust="spacing" textLength="76" x="945.25" y="683.291">ResultState</text><line style="stroke:#181818;stroke-width:0.5;" x1="879.5" x2="1054.5" y1="694" y2="694"/><line style="stroke:#181818;stroke-width:0.5;" x1="879.5" x2="1054.5" y1="702" y2="702"/><ellipse cx="889.5" cy="715.7441" fill="#84BE84" rx="3" ry="3" style="stroke:#038048;stroke-width:1.0;"/><text fill="#000000" font-family="sans-serif" font-size="14" lengthAdjust="spacing" textLength="136" x="898.5" y="719.5352">push_button(): bool</text><ellipse cx="889.5" cy="732.2324" fill="#84BE84" rx="3" ry="3" style="stroke:#038048;stroke-width:1.0;"/><text fill="#000000" font-family="sans-serif" font-size="14" lengthAdjust="spacing" textLength="151" x="898.5" y="736.0234">switch_context(): bool</text></g><!--MD5=[6754354365917abf8f1a56af1b7e344c]
class Context--><g id="elem_Context"><rect codeLine="68" fill="#F1F1F1" height="245.8594" id="Context" rx="2.5" ry="2.5" style="stroke:#181818;stroke-width:0.5;" width="232" x="641" y="149"/><ellipse cx="725.25" cy="165" fill="#ADD1B2" rx="11" ry="11" style="stroke:#181818;stroke-width:1.0;"/><path d="M727.7231,171.1431 Q727.1421,171.4419 726.5029,171.5913 Q725.8638,171.7407 725.1582,171.7407 Q722.6514,171.7407 721.3315,170.0889 Q720.0117,168.437 720.0117,165.3159 Q720.0117,162.1865 721.3315,160.5347 Q722.6514,158.8828 725.1582,158.8828 Q725.8638,158.8828 726.5112,159.0322 Q727.1587,159.1816 727.7231,159.4805 L727.7231,162.2031 Q727.0923,161.6221 726.4988,161.3523 Q725.9053,161.0825 725.2744,161.0825 Q723.9297,161.0825 723.2449,162.1492 Q722.5601,163.2158 722.5601,165.3159 Q722.5601,167.4077 723.2449,168.4744 Q723.9297,169.541 725.2744,169.541 Q725.9053,169.541 726.4988,169.2712 Q727.0923,169.0015 727.7231,168.4204 Z " fill="#000000"/><text fill="#000000" font-family="sans-serif" font-size="14" lengthAdjust="spacing" textLength="55" x="745.75" y="170.291">Context</text><line style="stroke:#181818;stroke-width:0.5;" x1="642" x2="872" y1="181" y2="181"/><rect fill="none" height="6" style="stroke:#C82930;stroke-width:1.0;" width="6" x="649" y="191.7441"/><text fill="#000000" font-family="sans-serif" font-size="14" lengthAdjust="spacing" textLength="106" x="661" y="198.5352">state: StateBase</text><rect fill="none" height="6" style="stroke:#C82930;stroke-width:1.0;" width="6" x="649" y="208.2324"/><text fill="#000000" font-family="sans-serif" font-size="14" lengthAdjust="spacing" textLength="63" x="661" y="215.0234">data: dict</text><rect fill="none" height="6" style="stroke:#C82930;stroke-width:1.0;" width="6" x="649" y="224.7207"/><text fill="#000000" font-family="sans-serif" font-size="14" lengthAdjust="spacing" textLength="103" x="661" y="231.5117">transactins: list</text><line style="stroke:#181818;stroke-width:0.5;" x1="642" x2="872" y1="238.4648" y2="238.4648"/><ellipse cx="652" cy="252.209" fill="#84BE84" rx="3" ry="3" style="stroke:#038048;stroke-width:1.0;"/><text fill="#000000" font-family="sans-serif" font-size="14" lengthAdjust="spacing" textLength="129" x="661" y="256">get_current_state()</text><ellipse cx="652" cy="268.6973" fill="#84BE84" rx="3" ry="3" style="stroke:#038048;stroke-width:1.0;"/><text fill="#000000" font-family="sans-serif" font-size="14" lengthAdjust="spacing" textLength="206" x="661" y="272.4883">change_state(state: StateBase)</text><text fill="#000000" font-family="sans-serif" font-size="14" lengthAdjust="spacing" textLength="4" x="661" y="288.9766"> </text><ellipse cx="652" cy="301.6738" fill="#84BE84" rx="3" ry="3" style="stroke:#038048;stroke-width:1.0;"/><text fill="#000000" font-family="sans-serif" font-size="14" lengthAdjust="spacing" textLength="176" x="661" y="305.4648">register(key: str, obj: Any)</text><ellipse cx="652" cy="318.1621" fill="#84BE84" rx="3" ry="3" style="stroke:#038048;stroke-width:1.0;"/><text fill="#000000" font-family="sans-serif" font-size="14" lengthAdjust="spacing" textLength="81" x="661" y="321.9531">get(key: str)</text><ellipse cx="652" cy="334.6504" fill="#84BE84" rx="3" ry="3" style="stroke:#038048;stroke-width:1.0;"/><text fill="#000000" font-family="sans-serif" font-size="14" lengthAdjust="spacing" textLength="171" x="661" y="338.4414">update(key: str, obj: Any)</text><ellipse cx="652" cy="351.1387" fill="#84BE84" rx="3" ry="3" style="stroke:#038048;stroke-width:1.0;"/><text fill="#000000" font-family="sans-serif" font-size="14" lengthAdjust="spacing" textLength="101" x="661" y="354.9297">delete(key: str)</text><ellipse cx="652" cy="367.627" fill="#84BE84" rx="3" ry="3" style="stroke:#038048;stroke-width:1.0;"/><text fill="#000000" font-family="sans-serif" font-size="14" lengthAdjust="spacing" textLength="61" x="661" y="371.418">commit()</text><ellipse cx="652" cy="384.1152" fill="#84BE84" rx="3" ry="3" style="stroke:#038048;stroke-width:1.0;"/><text fill="#000000" font-family="sans-serif" font-size="14" lengthAdjust="spacing" textLength="65" x="661" y="387.9063">rollback()</text></g><!--MD5=[80692a1f76d3f70cb06dc7884a961958]
link View to ChangeTextView--><g id="link_View_ChangeTextView"><path codeLine="40" d="M300.02,395.03 C281.98,412.09 263.81,429.28 246.81,445.37 " fill="none" id="View-to-ChangeTextView" style="stroke:#181818;stroke-width:1.0;"/><polygon fill="none" points="236.95,454.7,244.0579,453.4842,245.6694,446.4555,238.5615,447.6713,236.95,454.7" style="stroke:#181818;stroke-width:1.0;"/></g><!--MD5=[7c930cce8ac2621b3b97f2894bc6695d]
link View to ChangeInnerDataView--><g id="link_View_ChangeInnerDataView"><path codeLine="41" d="M448.66,395.03 C451.69,413.84 454.74,432.8 457.56,450.26 " fill="none" id="View-to-ChangeInnerDataView" style="stroke:#181818;stroke-width:1.0;"/><polygon fill="none" points="459.66,463.3,462.6524,456.7391,457.7471,451.4534,454.7547,458.0143,459.66,463.3" style="stroke:#181818;stroke-width:1.0;"/></g><!--MD5=[01a2e04289eefa46970f9de88ad0aba9]
link Controller to View--><g id="link_Controller_View"><path codeLine="43" d="M429,101.12 C429,101.12 429,136.96 429,136.96 " fill="none" id="Controller-View" style="stroke:#181818;stroke-width:1.0;"/><polygon fill="none" points="429,148.96,433,142.96,429,136.96,425,142.96,429,148.96" style="stroke:#181818;stroke-width:1.0;"/><polygon fill="none" points="429,89.12,425,95.12,429,101.12,433,95.12,429,89.12" style="stroke:#181818;stroke-width:1.0;"/></g><!--MD5=[7a25e1c0cf9f57ccf31195bd84e79339]
link Controller to Model--><g id="link_Controller_Model"><path codeLine="44" d="M366.2369,80.1344 C366.2369,80.1344 270.71,113.97 235,149 C211.02,172.52 188.2465,236.2691 188.2465,236.2691 " fill="none" id="Controller-Model" style="stroke:#181818;stroke-width:1.0;"/><polygon fill="none" points="185.03,247.83,190.4919,243.1217,188.2465,236.2691,182.7846,240.9774,185.03,247.83" style="stroke:#181818;stroke-width:1.0;"/><polygon fill="none" points="377.79,76.89,370.932,74.6611,366.2369,80.1344,373.0949,82.3632,377.79,76.89" style="stroke:#181818;stroke-width:1.0;"/></g><!--MD5=[a33262d52d4198814d1f053d3ca020c7]
reverse link StateBase to InitState--><g id="link_StateBase_InitState"><path codeLine="64" d="M756.02,613.81 C755.82,630.6 755.63,647.48 755.46,661.88 " fill="none" id="StateBase-backto-InitState" style="stroke:#181818;stroke-width:1.0;"/><polygon fill="none" points="749.02,613.46,756.26,593.55,763.02,613.63,749.02,613.46" style="stroke:#181818;stroke-width:1.0;"/></g><!--MD5=[512232a6263485244353f7b9bf89634a]
reverse link StateBase to ResultState--><g id="link_StateBase_ResultState"><path codeLine="65" d="M850.83,606.35 C874.26,625.54 898.43,645.34 918.62,661.88 " fill="none" id="StateBase-backto-ResultState" style="stroke:#181818;stroke-width:1.0;"/><polygon fill="none" points="846.23,611.63,835.2,593.55,855.1,600.8,846.23,611.63" style="stroke:#181818;stroke-width:1.0;"/></g><!--MD5=[8853d62dec15b7e8f08b28a69de2057d]
link Controller to Context--><g id="link_Controller_Context"><path codeLine="84" d="M480.22,82.4 C520.99,96.69 578.53,119.71 624,149 C626.04,150.31 628.07,151.65 630.1,153.03 " fill="none" id="Controller-to-Context" style="stroke:#181818;stroke-width:1.0;"/><polygon fill="none" points="640.91,160.62,638.3018,153.8971,631.0929,153.719,633.7011,160.4419,640.91,160.62" style="stroke:#181818;stroke-width:1.0;"/></g><!--MD5=[1a44b1046348748960e1c2216c13c985]
link Context to StateBase--><g id="link_Context_StateBase"><path codeLine="85" d="M757,395.03 C757,413.84 757,432.8 757,450.26 " fill="none" id="Context-to-StateBase" style="stroke:#181818;stroke-width:1.0;"/><polygon fill="none" points="757,463.3,761,457.3,757,451.3,753,457.3,757,463.3" style="stroke:#181818;stroke-width:1.0;"/></g><!--MD5=[b2ab13d6e87138bc022d9c7a6e8038cd]
@startuml Architecture

package MVC {
    class Model

    class View {
        -tk_root: tkinter.Tk
        -size: tuple
        -controller: Controller
        -change_text_view: ChangeTextView
        -change_inner_data_view: ChangeInnerDataView

        +set_controller(controller: Controller)
        +change_state_label(state_label: str)
        +change_text(text: str)
        +change_var_text(text: str)
        +alert_info(title: str, message: str)
        +alert_error(title: str, message: str)
        +alert_warning(title: str, message: str)
    }
    class ChangeTextView {
        -master: tkinter.ttk.Frame
        -size: tuple
        -controller: Controller

        +set_controller(controller: Controller)
        +change_state_label(state_label: str)
        +change_text(text: str)
    }
    class ChangeInnerDataView {
        -master: tkinter.ttk.Frame
        -size: tuple
        -controller: Controller

        +set_controller(controller: Controller)
        +change_var_text(text: str)
    }

    class Controller

    View - -o ChangeTextView
    View - -o ChangeInnerDataView

    Controller o- -o View
    Controller o- -o Model
}

package State {
    class StateBase {
        -controller: Controller
        -view: View
        -context: Context
        +push_button(): bool
        +switch_context(): bool
    }
    class InitState {
        +push_button(): bool
        +switch_context(): bool
    }
    class ResultState {
        +push_button(): bool
        +switch_context(): bool
    }

    StateBase <|- - InitState
    StateBase <|- - ResultState
}

class Context {
    -state: StateBase
    -data: dict
    -transactins: list

    +get_current_state()
    +change_state(state: StateBase)

    +register(key: str, obj: Any)
    +get(key: str)
    +update(key: str, obj: Any)
    +delete(key: str)
    +commit()
    +rollback()
}

Controller - -o Context
Context - -o StateBase

@enduml

PlantUML version 1.2022.7(Tue Aug 23 02:01:30 JST 2022)
(GPL source distribution)
Java Runtime: OpenJDK Runtime Environment
JVM: OpenJDK 64-Bit Server VM
Default Encoding: UTF-8
Language: ja
Country: JP
--></g></svg>